<svg xmlns="http://www.w3.org/2000/svg" viewBox="0 0 220 220">
  <g transform="translate(110,110)">
    <path d="M -68 -14 A 70 70 0 0 1 -65 -29" stroke="#8a95a3" stroke-width="0.9" fill="none" stroke-linecap="round"/>
    <path d="M -60 -35 A 70 70 0 0 1 5 -70" stroke="#c9a876" stroke-width="3.4" fill="none" stroke-linecap="round"/>
    <path d="M 19 -68 A 70 70 0 0 1 29 -63" stroke="#5f6b7a" stroke-width="0.7" fill="none" stroke-linecap="round"/>
    <path d="M 56 -40 A 70 70 0 0 1 70 10" stroke="#8a95a3" stroke-width="2.6" fill="none" stroke-linecap="round"/>
    <path d="M 67 25 A 70 70 0 0 1 60 39" stroke="#5f6b7a" stroke-width="0.7" fill="none" stroke-linecap="round"/>
    <path d="M 41 56 A 70 70 0 0 1 -10 69" stroke="#c9a876" stroke-width="1.5" fill="none" stroke-linecap="round"/>
    <path d="M -32 62 A 70 70 0 0 1 -44 56" stroke="#8a95a3" stroke-width="0.7" fill="none" stroke-linecap="round"/>
    <path d="M -54 48 A 70 70 0 0 1 -70 -5" stroke="#5f6b7a" stroke-width="2.2" fill="none" stroke-linecap="round"/>
  </g>
</svg>